/* XPM */
static char *result[] = {
/* columns rows colors chars-per-pixel */
"64 64 181 2 ",
"   c #000000",
".  c #0B0B0B",
"X  c #0F1010",
"o  c #131314",
"O  c #1B1C1C",
"+  c #171818",
"@  c #1A1623",
"#  c #1C1925",
"$  c #1F1A29",
"%  c #221E2B",
"&  c #232424",
"*  c #25212D",
"=  c #2B252C",
"-  c #2C2C2D",
";  c #2A2126",
":  c #352D2A",
">  c #362D26",
",  c #2A2733",
"<  c #2C2935",
"1  c #2F2C38",
"2  c #2F3030",
"3  c #333333",
"4  c #34323E",
"5  c #373939",
"6  c #3A393C",
"7  c #302C39",
"8  c #4D3F2C",
"9  c #403428",
"0  c #4E412A",
"q  c #50402B",
"w  c #5F4B2A",
"e  c #544735",
"r  c #775F2F",
"t  c #604D29",
"y  c #7F672F",
"u  c #7F6730",
"i  c #7F6B38",
"p  c #363340",
"a  c #3C3940",
"s  c #3F4141",
"d  c #46444F",
"f  c #4C4C4C",
"g  c #464647",
"h  c #534F40",
"j  c #575445",
"k  c #474450",
"l  c #4F4C54",
"z  c #514F5A",
"x  c #53525B",
"c  c #595757",
"v  c #7F7D56",
"b  c #7A6C54",
"n  c #5F5E66",
"m  c #5F5F68",
"M  c #615F67",
"N  c #605F68",
"B  c #5F6162",
"V  c #636565",
"C  c #63626B",
"Z  c #666969",
"A  c #6A6C6D",
"S  c #696565",
"D  c #797B7B",
"F  c #76787A",
"G  c #6E6A69",
"H  c #816A39",
"J  c #C2741D",
"K  c #C47A1D",
"L  c #C37620",
"P  c #C57B23",
"I  c #C97F29",
"U  c #937B44",
"Y  c #A58533",
"T  c #A98734",
"R  c #A88834",
"E  c #B18F35",
"W  c #B49133",
"Q  c #BF9933",
"!  c #B29139",
"~  c #C98522",
"^  c #CE8D26",
"/  c #CA822C",
"(  c #CB8827",
")  c #CF9027",
"_  c #D49A2C",
"`  c #CD8732",
"'  c #CE8833",
"]  c #CF8D38",
"[  c #D08D34",
"{  c #D08733",
"}  c #C8973B",
"|  c #D29333",
" . c #D59934",
".. c #D0933D",
"X. c #D9A22F",
"o. c #CEA636",
"O. c #CEA836",
"+. c #D1A736",
"@. c #DAA435",
"#. c #D3AA36",
"$. c #DEAD34",
"%. c #D4AD3C",
"&. c #DEB135",
"*. c #DCB239",
"=. c #E0AF33",
"-. c #E1B334",
";. c #E1B63A",
":. c #E2B93D",
">. c #858155",
",. c #848268",
"<. c #D49B45",
"1. c #D9A84C",
"2. c #DAAC51",
"3. c #DCB457",
"4. c #E3BC43",
"5. c #C0BE7A",
"6. c #E4C34B",
"7. c #E7C752",
"8. c #E9CF5B",
"9. c #E7C955",
"0. c #ECD25F",
"q. c #CFCD7C",
"w. c #C7C376",
"e. c #E7CC6C",
"r. c #E5CE68",
"t. c #ECD565",
"y. c #ECD96A",
"u. c #EEDC70",
"i. c #EAD676",
"p. c #EEE275",
"a. c #EEE17E",
"s. c #F3E97F",
"d. c #7C7C83",
"f. c #7F8383",
"g. c #8A8B8C",
"h. c #858888",
"j. c #8C8C91",
"k. c #8F9394",
"l. c #919595",
"z. c #95969A",
"x. c #96999B",
"c. c #999C9E",
"v. c #9C9FA0",
"b. c #9FA0A6",
"n. c #A5A9AA",
"m. c #A7AAAC",
"M. c #ABAFB0",
"N. c #AEB1B2",
"B. c #B6B7B8",
"V. c #B9BBBD",
"C. c #E1DE86",
"Z. c #E7E489",
"A. c #E4E389",
"S. c #F3EC84",
"D. c #F4EE8A",
"F. c #F4F28D",
"G. c #F8F691",
"H. c #BABFC0",
"J. c #BDC3C4",
"K. c #C2C4C6",
"L. c #C4C6C9",
"P. c #C9CDCE",
"I. c #C5CBCB",
"U. c #CDCED0",
"Y. c #CED3D3",
"T. c #D1D3D5",
"R. c #D2D7D8",
"E. c #DADDDF",
"W. c #D4DADB",
"Q. c #D9DFE0",
"!. c #DDE3E4",
"~. c #E0E3E5",
"^. c #E1E7E9",
"/. c #E3E9EA",
"(. c #E9ECEE",
"). c #ECEFF1",
"_. c #EBF2F3",
"`. c #F1F5F6",
"'. c #F1F7F8",
"]. c #F4FBFC",
"[. c #F8FCFD",
/* pixels */
"                                                                                                                                ",
"                                                                                                                                ",
"                                                                                                                                ",
"                                                                                                                                ",
"                                                  . . . . . . . . . . . . . .                                                   ",
"                                                . J.!.!.!.!.!.^.!.!.!.!.!.Q.J..                                                 ",
"                                                + (.].].].].].].].].].].].]./.o                                                 ",
"                                                2 ].].].[.].[.].[.].[.].].].].-                                                 ",
"                                    f Z Z V B B F m.v.b.b.b.b.b.n.v.b.v.b.b.n.D C V Z Z Z g                                     ",
"                                  . R.].].].'.].(.p * % % % % % % % % * % * p /.].].].].].Y..                                   ",
"                                  o Q.].].].].].).p % % % % % % % % * % % * 4 _.].].].].].!.o                                   ",
"                              o X # Y.(.(.(.).(.~.a = = = , & * , , , , = , 6 !.).(.).).(.Y.& + o                               ",
"                            - L.L.P.A k d d d d f ! Q } Q Q Q o.w.q.q.q.q.q.5.f k k k k k A R.U.I.-                             ",
"                            6 ].].].z % * % % % ; +.&.$.-.&.-.:.s.F.F.F.D.D.C.- % % % % % z ].].].6                             ",
"                            A ].'.'.x % % % % % ; O.&.&.-.-.-.:.S.F.F.F.F.F.C.- % % % % $ z ].'.].Z                             ",
"                      & Z l.Q.x.v.z.U r r r r r y #.-.&.-.-.&.-.0.t.t.t.t.t.r.v v v v v v ,.v.v.x.Y.h.Z &                       ",
"                      n.].].L.@ # # W ;.-.-.-.;.-.-.-.-.-.-.-.-.=.=.=.=.-.-.;.F.G.G.G.G.F.w.# # @ J.].].m.                      ",
"                    . N.].].L.# % % ! -.-.-.-.-.-.-.-.-.-.-.-.-.=.-.-.-.-.-.:.S.F.F.F.F.F.w.% * % K.'.].N.                      ",
"                + & 4 B.!.~.B.> : : W -.-.-.-.-.-.&.&.&.&.&.-.&.=.=.=.$.$.$.*.s.s.S.S.S.S.w.: 3 : B.~.~.m.+ o o                 ",
"              & Y.^.^.A < 1 e %.+.+.=.=.-.-.-.-.-.[ ' ' ' { ' ` K K K K J J ~ -.:.*.&.:.*.6.Z.Z.Z.j 7 1 C !.!.Y.&               ",
"              - !.].].B % % q -.-.-.-.-.-.-.-.-.-.' ' ' ' ' ' / K J J J J J K $.-.-.-.-.-.6.D.F.G.j % % m '.]./.-               ",
"              3 /.].].C % * q -.-.-.-.-.-.-.-.-.=.[ ' { ' { ' ' J J J J J J K =.-.-.-.&.-.6.F.F.G.h % $ M ].]./.-               ",
"              2 /.].].N % % 8 -.-.-.-.-.-.@. ._  .' ' ' ' { ' ' I I ~ P I I ~ ) ) ) $.-.-.:.8.8.t.e % % M '.].^.-               ",
"              3 /.].'.C % % 8 ;.-.=.-.-.-.=.{ { ' ' ' ' ' ' ' ' ' ' ' ' ' ' / J J J _ -.-.-.&.-.-.8 % % M ].]./.3               ",
"              5 /.].].C % % 0 ;.-.-.-.-.&.@.' ' ' ' ' ' ' ' ' ' ' ' ' ' ' ' ' J J J _ &.&.&.-.-.;.q % $ M '.]./.3               ",
"        . + O g T.!.!.S > > w -.-.&.$.$.$.@.' ' ' ' ' ' ' { [ [ ......] ' ' ' L J J _ $.$.&.-.-.;.t : > S ~.Q.T.g + o .         ",
"        D (._.U.1 * * Y &.*.$.-.-.-.| ` ' ' ' ' ' / ' '  .-.-.:.S.D.D.3.' ` ' ' ` ` P J J ~ &.-.-.&.*.$.T = = 1 Y.).).D         ",
"        z.].].T.< % * Y -.&.&.-.-.-.| ' ' ' ' ' ' ' ' '  .-.&.:.S.D.F.3.' ' ' ' ` ` P J J ~ &.-.-.-.-.=.T % % < T.].].x.        ",
"        c.].].R.< % % R -.-.-.-.-.-.| ' ' { ' ' ' ' ' '  .&.-.:.S.F.F.3./ ' ` ' ` ' P J J ~ -.-.-.-.-.-.T % % < Y.].].l.        ",
"        l.].].T., % % R -.-.-.-.-.-.| { ' ' ' ' ' @.@.@.$.&.-.-.6.7.7.r.e.e.e.] ' ' ` I / ) -.-.-.-.-.-.T & % < T.].].k.        ",
"        l.].].R.< % % Y -.-.-.-.-.-.| ' { ' ' ' ' $.-.-.&.-.-.-.-.-.-.t.F.F.S.] ' ' ' ' ' | -.-.-.-.-.-.T % % , T.].].k.        ",
"        c.].].R., * % Y -.-.-.-.&.-.| { ' [ ' ' ' $.-.-.-.-.&.-.-.-.*.y.F.D.S.] ' ' ' ' ' | -.-.-.-.-.-.R % % , T.].[.x.        ",
"      . c.].].R.< % % R -.-.-.-.-.-.| ' ' ' ' ' ' -.-.-.-.-.-.-.-.-.-.8.p.p.u.' ' ' ' ' ' [ -.-.-.-.-.-.T ; % < T.].].x.        ",
"        l.].].T.= % % Y -.=.-.-.-.-.| { ' ' ' ' ' &.-.-.-.-.-.-.-.-.-.-.&.-.$.] ' ' ] ' ' | -.-.-.-.-.-.T % % < T.].].j.        ",
"        g.].].R.< % % Y -.-.-.-.-.-.| ' ' [ ' ' ' &.-.-.-.-.-.-.-.-.-.-.-.-.$.' ' ' ' ' ' | *.-.-.-.-.-.T % % , T.].[.l.        ",
"        l.].].R.< % % R -.-.-.-.-.-.| ' { ' ' ' ' $.-.&.-.-.-.-.-.-.-.&.-.-.&.[ ' ' ' ' ' | -.-.-.-.-.-.T % % , U.[.].x.        ",
"        x.].].R.< % % T -.-.-.-.-.-.| ' ' ' ' ' ' ~ ~ ~ _ -.-.-.-.-.-.@.| | | ' ' ' ' ' ' [ -.-.-.-.-.-.T % % , T.].].v..       ",
"        x.].].T.< % % T -.-.-.-.-.-.[ ' ' ' ' ' ' J J J ^ -.-.-.-.-.-. .' ' ' ' ' ' ' ' ' | -.-.-.-.-.-.R % % , T.].].v.        ",
"        x.].].T.< % % Y -.-.-.-.-.-.| ' ' ' ' ' { L J J ^ -.&.-.&.-.-. .' ' ' ' ' ' ' ' ' | -.-.-.-.-.-.R = * , T.].].b.        ",
"        f n.m.c.N N M U R T W -.-.-.1.1.1.<.' ' ' P P P ^ X._ +.@.@.@.| ' ' ' ' ' ' | | |  .-.&.-.W T T H S V n l.n.x.6         ",
"          . . 5 ^.'.'.C % % 8 -.-.-.p.F.F.e.' ' ' ' ' ' / J J J / { ' ' ' ' ' ' ' ' @.=.-.-.-.-.-.8 % % N `.`.~.3 .             ",
"              - !.].].N % % 8 ;.-.-.p.F.F.e.' ] ' ' ` ' I J J L { { ' ' ' ' ' ' ' ' @.-.-.&.-.-.-.8 % % N ].].^.-               ",
"              3 /.].].C % % 8 ;.&.-.p.D.D.e.] ] ..' ' ' I L L L ' ' ' ' ' ' ' ' ' ' @.-.-.-.-.-.-.q % % N ].]./.-               ",
"              - !.].].N % % 8 -.-.-.4.4.4.9.S.i.i.] ' ' ` / / ` ` ' ' ' ' ' { $.$.$.$.-.-.-.-.-.;.q % % N '.].^.-               ",
"              3 /.].].C $ % q -.-.-.-.-.-.9.F.F.S...' ' ` ` ` ` ' ' ' ' ' ' ] &.&.-.-.-.-.-.-.-.-.8 % % M ].].^.2               ",
"              - !.].'.m % % 0 -.-.&.-.&.-.9.F.F.F.| ' ' ` [ ` [ ' ' ' ' ' ' ' $.-.-.&.-.-.-.-.&.;.w % % M '.].^.2               ",
"              . A k.v.f.C C G R Y Y +.-.-.6.u.u.u.3.2.2.2.2.2.1.|  .|  .|  . .=.-.-.-.-.-.+.Y Y Y b S C F c.l.A .               ",
"                      m.[.[.L.@ $ @ W -.-.-.&.&.&.S.F.G.F.G.G.D.:.-.-.-.-.-.-.-.-.-.-.-.-.W O # @ K.[.[.N.                      ",
"                      v.].].L.$ % % W -.-.-.-.-.;.S.F.F.F.F.F.S.:.-.-.-.-.-.-.-.-.-.-.=.-.W % % $ J.].].b.                      ",
"                      A _.'.I.$ * * R &.&.&.*.*.*.S.F.D.F.F.D.s.4.&.-.&.-.-.-.=.$.*.$.*.$.! % = % K.'.).f.                      ",
"                        + & Z !.~.^.c > > : : : > 1.:.:.:.:.:.-.-.-.-.-.-.-.+.9 > : : : : c ~.!.!.z # +                         ",
"                            s ].].[.x $ % % % % ; o.-.-.-.-.-.=.-.-.-.&.-.=.+.= % % % % % z ].].[.3                             ",
"                            - '.].].z $ $ $ $ % ; O.-.-.;.-.=.-.-.-.-.-.=.-.+.% % $ $ % % l ].].'.&                             ",
"                            . B h.h.g.j.j.j.j.j.g.H u y H H H y H y H H u u i g.j.j.j.j.j.z.D F B                               ",
"                                    L.].].[.].[.).4 % $ O % % % % % O % % % p (.].[.].].].T.                                    ",
"                                    H.].].].].].).5 * % % % % % % % % % % % p (.].].].].].J.                                    ",
"                                    A J.R.E.R.R.Y.k p p p p p p 3 4 4 p p 4 d P.R.R.R.Y.J.A                                     ",
"                                        . . . . & ~.(./.(.(.(.(.(.(.(.(.(.(.Q.O   . . .                                         ",
"                                                o /.].].].].].].[.].].].].[.Q.o                                                 ",
"                                                . W.].].].].].].].].].].].'.P..                                                 ",
"                                                  6 c V V V V A A Z V V M f O                                                   ",
"                                                                                                                                ",
"                                                                                                                                ",
"                                                                                                                                "
};
