/* XPM */
static char *result[] = {
/* columns rows colors chars-per-pixel */
"64 64 77 1 ",
"  c #000000",
". c #080703",
"X c #0D0C05",
"o c #110E06",
"O c #100E08",
"+ c #141105",
"@ c #1A1707",
"# c #1D1904",
"$ c #131209",
"% c #191508",
"& c #1E1A0B",
"* c #211D0A",
"= c #25210C",
"- c #29230A",
"; c #362E0D",
": c #37300E",
"> c #38300D",
", c #342E11",
"< c #373012",
"1 c #3C3512",
"2 c #453A0E",
"3 c #403714",
"4 c #433910",
"5 c #5E4E0F",
"6 c #524611",
"7 c #554813",
"8 c #5F4E10",
"9 c #594C18",
"0 c #5C5017",
"q c #745F0F",
"w c #645412",
"e c #675815",
"r c #6A5A16",
"t c #715E11",
"y c #736012",
"u c #7A6511",
"i c #866F13",
"p c #886F12",
"a c #867117",
"s c #8C7411",
"d c #8D7817",
"f c #877218",
"g c #897318",
"h c #957C16",
"j c #967E19",
"k c #987F18",
"l c #9F8516",
"z c #9B821A",
"x c #A38713",
"c c #A58814",
"v c #AA8D16",
"b c #A18719",
"n c #A98D19",
"m c #AF9116",
"M c #B59616",
"N c #BB9B14",
"B c #B59618",
"V c #B99A1A",
"C c #C39F11",
"Z c #DEB60F",
"A c #C4A214",
"S c #CAA513",
"D c #CEAA14",
"F c #C5A31A",
"G c #C8A61B",
"H c #CAA81A",
"J c #D5AE14",
"K c #D7B013",
"L c #DDB511",
"P c #E9BE0F",
"I c #E0B711",
"U c #E3BA14",
"Y c #E9BE13",
"T c #EEC20D",
"R c #F0C30E",
"E c #ECC113",
"W c #E8C119",
/* pixels */
"                                                                ",
"                                                                ",
"                                                                ",
"                     XMAAACCCCCCCCCCCCCAAy                      ",
"                     $LTTPTTPRTPPTTTTTTTTg                      ",
"                XOoXo&KRRRRRRRRRRRRRRRTTTdXoXX$                 ",
"                jEEEEETTRRRRRRRRRRRRRRTTTTEEEEE,                ",
"                jTETTTTTRRRRRRRRRRRRRRTRRRERRET>                ",
"             %>>nTTRRRRRRRRRRRRRRRRRRRRRRRRRTTT0><              ",
"             ePTTTTTRRRRRRRRRRRRRRRRRRRRRRRRTTTTTW$             ",
"             wRRTTTRRRRRRRRRRRRRRRRRRRRRRRRRRRTRTE$             ",
"          %eebTTRTRRRRRRRRRRRRRRRRRRRRRRRRRRRRTTEEre9           ",
"          >PRPRRRRRRRRRRRRRRRRRRRRRRRRRRRRRRRRRRTTTTA           ",
"          ;PRRRRRRRRRRRRRRRRRRRRRRRRRRRRRRRRRRRRRRTTF           ",
"       oghmPRRRRRRRRRRRRRRRRRRRRRRRRRRRRRRRRRRRRRRTTLhjw        ",
"       @KRPRTRRRRRRRRRRRRRRRRRRRRRRRRRRRRRRRRRRRRRRTTTTz        ",
"       %KTTTRRRRRRRRRRRRRRRRRRRRRRRRRRRRRRRRRRRRRRRRRTTj        ",
"    .zFHTTTTRRRRRRRRRRRRRRRRRRRRRRRRRRRRRRRRRRRRRRRRRRTIFG7     ",
"    .NTTTTTRRRRRRRRRRRRRRRRRRRRRRRRRRRRRRRRRRRRRRRRRRTTTTTw     ",
"    .NTTRTTRRRRRRRRRRRRRRRRRRRRRRRRRRRRRRRRRRRRRRRRRRRTTTRw     ",
"    .NTTRRRRRRRRRRRRRRRRRRRRRRRRRRRRRRRRRRRRRRRRRRRRRRRRRTw     ",
"    .NTTRRRRRRRRRRRRRRRRRRRRRRRRRRRRRRRRRRRRRRRRRRRRRRRRTTw     ",
"  =11SERRRRRRRRRRRRRRRRRRRRRRRRRRRRRRRRRRRRRRRRRRRRRRRRRTRa11X  ",
"  sEETRRRRRRRRRRRRRRRRTRRRRRRRRRRRRRRRRRRRRRRRRRRRRRRRRRRTTEE;  ",
"  sTTTRRRRRRRRRRRRRRRRRRRRRRRRRRRRRRRRRRRRRRRRRRRRRRRRRRTRTTT;  ",
"  sTRTRRRRRRRRRRRRRRRRRRRRRRRRRRRRRRRRRRRRRRRRRRRRRRRRRRRTRTP;  ",
"  sTRRRRRRRRRRRRRRRRRRRRRRRRRRRRRRRRRRRRRRRRRRRRRRRRRRRRRRRRT;  ",
"  sTTRRRRRRRRRRRRRRRRRRRRRRRRRRRRRRRRRRRRRRRRRRRRRRRRRRRRRRTT;  ",
"  sTTRRRRRRRRRRRRRRRRRRRRRRRRRRRRRRRRRRRRRRRRRRRRRRRRRRRRRRTT;  ",
"  sTTRRRRRRRRRRRRRRRRRRRRRRRRRRRRRRRRRRRRRRRRRRRRRRRRRRRRRRTT;  ",
"  sTTRRRRRRRRRRRRRRRRRRRRRRRRRRRRRRRRRRRRRRRRRRRRRRRRRRRRRRTE;  ",
"  sTTRRRRRRRRRRRRRRRRRRRRRRRRRRRRRRRRRRRRRRRRRRRRRRRRRRRRRRTT;  ",
"  sTRRRRRRRRRRRRRRRRRRRRRRRRRRRRRRRRRRRRRRRRRRRRRRRRRRRRRRRRP;  ",
" .sTRRRRRRRRRRRRRRRRRRRRRRRRRRRRRRRRRRRRRRRRRRRRRRRRRRRRRRRRT;  ",
"  sTRRRRRRRRRRRRRRRRRRRRRRRRRRRRRRRRRRRRRRRRRRRRRRRRRRRRRRRRP>  ",
"  sTRRRRRRRRRRRRRRRRRRRRRRRRRRRRRRRRRRRRRRRRRRRRRRRRRRRRRRRRR>  ",
"  sTRRRRRRRRRRRRRRRRRRRRRRRRRRRRRRRRRRRRRRRRRRRRRRRRRRRRRRRTP;  ",
"  sTRRRRRRRRRRRRRRRRRRRRRRRRRRRRRRRRRRRRRRRTRRRRRRRRRRRRRRRTT>  ",
"  sTRRRRRRRRRRRRRRRRRRRRRRRRRRTTRRRRRRRRRRRRPRTPPTTTRPRRRRTTT;  ",
"  sTTRRRRRRRRRRRRRRRRRRRRRRRRRRTRRRRRRRRRRRRmppsppPRRRRRRRTTT;  ",
"  sTTTTTRRRRRRRRRRRRRRRRRRRRTTTTERRRRRRRRRRR8     UTRRRRRRTTT;  ",
"  sTTTTTRRRRRRRRRRRRRRRRRRRRTTPTERTRRRRRRRRR8    .URTRRRTTTPT;  ",
"  ;67DTRRRRRRRRRRRRRRRRRRRTTRTa66DTRRRRRRRRR8    .UTTRRRRRh67o  ",
"    .NTRRRRRRRRRRRRRRRRRRTTTTT6. ATRRTRRRRRR8     PRTRRRTTw     ",
"    .NTRRRRRRRRRRRRRRRRRTRTPLU6  VLUTTTRRRRRwoXXooUPRRRRTRw     ",
"    .NTRTTRRRRRRRRRRRRRRTRTz--X  *-,YTTRRRRRKSSSSSRRRRRTTTw     ",
"    .NTTTTRRRRRRRRRRRRRRTTTf       OYERRRRRRPRPRPRRPRRRRTTw     ",
"    .lSDTTTRRRRRRRRRRRRRTTTg       OYRRRRRRRRRRRRRRRRTRISS7     ",
"     XX=KTTTTRRRRRRRRRRRRRTs       OYTTRRRRRRRRRRRRRRTTlXo.     ",
"       @JTTTTRRRRRRRRRRRRRTp       OYRTRRRRRRRRRRRRRTRTh        ",
"       +zcMTTRRRRRRRRRRRRTTs       OYTRRRRRRRRRRRRRPUxcr        ",
"          >YTRRTRRRRRRRRTTTi       OETTRRRRRRRRTRRRRF           ",
"          >PTTTTPRRRRRPRTTTa       OYPRRTRRRRRRTRPRPA           ",
"          @tqvTTRRRRRRRRDqt4       .tqgTRRRRRRRRRRuyw           ",
"             eTTRRRRRRRRM.            ;RTRRRRRREREO             ",
"             eTTPRRRRRRPM.            ;PTRRRRRPTRYO             ",
"             &22MPRPRRPRM.            ,ERRRRRTTe24.             ",
"                hPRRRRRPM.            ,TTTTTRTT<                ",
"                dILLIIZZn             ;LZZZZZZL,                ",
"                +#######@             .@#######                 ",
"                                                                ",
"                                                                ",
"                                                                ",
"                                                                "
};
