/* XPM */
static char *_6d2b66706314d4a91bedc4a8e21a3fa9cvV97XtrBdEektK[] = {
/* columns rows colors chars-per-pixel */
"64 64 122 2 ",
"   c #000000",
".  c #090503",
"X  c #0F0806",
"o  c #120B07",
"O  c #150C08",
"+  c #1F120D",
"@  c #23150E",
"#  c #29170F",
"$  c #2C190F",
"%  c #311A0F",
"&  c #2C1910",
"*  c #3D1710",
"=  c #321B10",
"-  c #3B1E12",
";  c #3E2012",
":  c #401F12",
">  c #4A1912",
",  c #571A12",
"<  c #5D1912",
"1  c #6F1D15",
"2  c #711D14",
"3  c #7F1F16",
"4  c #442313",
"5  c #4A2615",
"6  c #462817",
"7  c #4D2916",
"8  c #472A18",
"9  c #482B18",
"0  c #522B17",
"q  c #562E18",
"w  c #582F18",
"e  c #5C3119",
"r  c #61351B",
"t  c #67391C",
"y  c #6A3B1E",
"u  c #703F1F",
"i  c #6D3D20",
"p  c #703F20",
"a  c #734221",
"s  c #784623",
"d  c #7D4A26",
"f  c #7D4B28",
"g  c #821C15",
"h  c #951F17",
"j  c #812016",
"k  c #892117",
"l  c #A22218",
"z  c #B5251A",
"x  c #BB271B",
"c  c #BB281C",
"v  c #C82417",
"b  c #CA271B",
"n  c #CA291C",
"m  c #CA2D21",
"M  c #CB3225",
"N  c #CC3529",
"B  c #CE3A2D",
"V  c #CE3F32",
"C  c #814C27",
"Z  c #834E29",
"A  c #8F572F",
"S  c #91592F",
"D  c #925A30",
"F  c #CF4436",
"G  c #CF4839",
"H  c #D04335",
"J  c #D04638",
"K  c #D1493A",
"L  c #D35444",
"P  c #D55B4B",
"I  c #D76251",
"U  c #D86554",
"Y  c #DA6C5A",
"T  c #DA6E5C",
"R  c #DA705E",
"E  c #DC715E",
"W  c #DD7E6A",
"Q  c #DF826F",
"!  c #DF826D",
"~  c #DF8472",
"^  c #E0836E",
"/  c #E18570",
"(  c #E28874",
")  c #E28974",
"_  c #E18C76",
"`  c #E28874",
"'  c #E38F7A",
"]  c #E4917B",
"[  c #E2927E",
"{  c #E3937E",
"}  c #E4937C",
"|  c #E7A089",
" . c #EDB99F",
".. c #EDBBA1",
"X. c #EEBDA2",
"o. c #EFC0A5",
"O. c #EFC1A6",
"+. c #EFC5AA",
"@. c #EFC3A8",
"#. c #F2CEB3",
"$. c #F2CFB3",
"%. c #F2CDB2",
"&. c #F4D3B6",
"*. c #F5D7B8",
"=. c #F5D8B9",
"-. c #F6D9BA",
";. c #F6D9BB",
":. c #F6DABB",
">. c #F6DABC",
",. c #F6DBBC",
"<. c #F7DEBF",
"1. c #F6DCBC",
"2. c #F6DCBD",
"3. c #F7DEC0",
"4. c #F7DFC0",
"5. c #F7DFC1",
"6. c #F7DFC0",
"7. c #F7E0C1",
"8. c #F8E0C0",
"9. c #F8E0C1",
"0. c #F8E1C1",
"q. c #F8E1C3",
/* pixels */
"                                                                                                                                ",
"                                                                                                                                ",
"                                                                                                                                ",
"                                                                                                                                ",
"                                          . X X X X X X X X X X X X X X X X X X X .                                             ",
"                                          @ & & & & & & & & & & & & & & & & & & # o                                             ",
"                                    X @ + f A S D D D D D D D D D D D S D S S S i 4 @ @ .                                       ",
"                                O O = q q i i t t t t t t t t t t t t t t t t t t e q q + o o                                   ",
"                            . o ; ; 0 r w e q 7 0 0 0 0 0 0 0 0 0 0 0 0 0 0 0 0 q q w t 4 = = .                                 ",
"                            o = t t t e - : 4 4 4 4 4 4 ; : 4 ; : : - - : - : : 4 : 4 t t r e # .                               ",
"                          @ 5 t t & # # # # # # # # # # # # # # # # # # # # # # # # # # # = 5 5 = o                             ",
"                      . O q r r 4 # , k k k k k k k k k k k k k k k k k k k k k k k k k * # = 5 4 $ o                           ",
"                      . # y t q # > k m K K K K K M B L L N N L L B N K n B K K K G F b 1 * # 0 7 - @                           ",
"                      . # y w ; @ x n B 1.:.:.:.1.P R ,.,.P U :.:.T I 7.B _ ,.,.:.:.+.v n 3 # y q - @                           ",
"                    o 4 s t q 4 @ x n B 5.L M M N m m V 5.P U &.N m I 9.B M B ' #.N N n n j # y w 5 5 @ .                       ",
"                    O 6 d e 7 - @ x n B 5.| ] ] } H n n E Q ~ Y n n I 9.B n n ( #.n n n n j # y r w 5 # .                       ",
"                    O 8 d w 5 - @ x n B 1.o. . ...L n n H { { H n n I 9.B n n ( #.n n n n j # t y r 5 # .                       ",
"                    O 8 C w 0 4 @ x n B 9.K b b b n n M 9.P U *.n n I 9.B n n ( #.n n n n j # q t r 5 # .                       ",
"                    O 9 Z w 5 - @ x n B 1.@.X.X.X.L P o.1.P U :.o.U I 5.B n n ( #.n n n n 3 # w t r 5 # .                       ",
"                    O 9 Z e 5 - @ l x M / ^ ^ ^ ^ H H Q Q F J Q ^ K H Q M n n P W n n n z 2 # w t r 7 # .                       ",
"                    O 9 Z e 5 - @ g l x c c c c c c c c c x x c c c c c c x x c c x x x h < # w t r 5 # .                       ",
"                    O 9 Z e 5 - @ @ @ @ @ @ @ @ @ @ @ @ @ @ @ @ @ @ @ @ @ @ @ @ @ @ @ @ @ @ # q t r 7 # .                       ",
"                    O 9 Z e 5 - @ - - - ; ; ; ; ; ; - - @ = ; ; ; ; = @ - - - - - - - - = $ # q t r 7 # .                       ",
"                    O 9 Z e 5 - # 5 5 4 7 7 5 4 7 7 5 4 @ 4 7 7 7 7 ; @ 5 7 5 5 4 4 5 4 - & # q t r 7 # .                       ",
"                    O 9 Z e 5 - # e 0 4 r r 0 5 r r q 5 @ 5 e e e e 5 @ e e e e 5 5 0 0 ; $ # w t r 7 # .                       ",
"                    O 9 Z e 7 - # e 0 5 r r 0 5 r r w 7 @ 7 r r r e 5 @ e t t e 5 0 e 0 ; & # w t r 7 # .                       ",
"                    O 9 Z e 5 - # e e w r r 0 5 r r e 7 @ 7 r r r e 7 @ e t t e 5 0 e 0 ; & # w t r 7 # .                       ",
"                    O 9 Z e 5 - # e e e r e 0 5 r r e 7 @ 7 r r t r 7 @ e t t e 5 0 e 0 ; = # w t r 7 # .                       ",
"                    O 9 Z e 5 - # e e q r e 0 5 r r e 7 @ 7 r r y t 7 @ e t y e 5 0 e 0 4 = # w t r 0 # .                       ",
"                    O 9 Z e 5 - @ e e q r e 0 7 r r e 7 @ 5 r r y t 7 @ e t a a e w e 0 4 % # w t r 0 # .                       ",
"                    O 9 Z e 5 - @ e e q r e 0 7 r r e 0 @ 5 e e y t 7 @ e t a s e e e 0 4 % # q t r 0 # .                       ",
"                    O 8 Z e 5 - @ e e q r e q 0 r r e 0 @ 5 r r y t 7 @ e t a p q q e 0 ; $ # w t r 0 # .                       ",
"                    O 9 Z e 5 - @ e e q r r e q r r e 0 @ 7 r r y t 7 @ e t y e 4 7 e 0 - $ # w t r 7 # .                       ",
"                    O 9 Z w 5 - @ e q 7 r r e q r r e 0 @ 7 r r y t 7 @ e t t e & # # # # # # w t r 0 # .                       ",
"                    O 9 Z e 5 - @ e q 7 r r e q r r e 0 @ 7 r r t r 7 @ e r e ; # - 5 5 & # # t t r 0 # .                       ",
"                    O 9 Z e 5 - @ e 0 7 r r e q r r e 0 @ 7 r e e e 7 @ e e 7 # $ q a t ; # # y y r 0 @ .                       ",
"                    O 9 Z e 5 - # e 0 7 r r r r r r e 0 @ 7 e e e e 7 @ e q 5 # q d S r 7 - # t y r 0 @ .                       ",
"                    O 9 Z e 5 - # e q 7 r w e r r r e 0 @ 7 r e e e 7 @ e q 5 # 5 r a y 0 - # e t r 0 # .                       ",
"                    O 9 Z e 5 - # e q 7 r q q e r r e 0 @ 7 e e t r 7 @ e q 5 # = 7 r r 5 = # w t r 0 # .                       ",
"                    O 9 Z e 5 - @ e q 7 r q q q r r e 0 @ 7 e e i t 7 @ e w 5 # # = 5 7 & @ # w t r 0 # .                       ",
"                    O 9 Z e 7 - @ e q 7 r q q q r r e 7 @ 7 r r p t 7 @ e w 7 4 # @ @ @ # # # q t r 7 # .                       ",
"                    O 9 Z e 7 - @ e q 7 r q 7 7 r r e 7 @ 7 r r u t 7 @ e e q 5 # $ = = = $ # q t r 7 # .                       ",
"                    O 9 Z e 7 - @ e q 7 r q 7 5 r r e 7 @ 7 r r t r 7 @ e r e 5 = = 4 - - = # q t r 0 @ .                       ",
"                    O 9 Z e 7 - @ e q 7 r q 7 5 r r e 7 @ 7 r e e e 7 @ e r e 7 - 4 5 - - = # q t r 0 @ .                       ",
"                    O 9 Z e 7 - # e w 0 r q 7 5 r e e 0 @ 7 r e e e 7 @ e r e 7 ; 7 r r 5 = # q t r 0 @ .                       ",
"                    O 9 Z e 7 - # e w 7 r 0 7 5 r e q 7 @ 7 r e q e 7 @ e r e 7 ; 7 r r 5 = # q t r 0 # .                       ",
"                    O 9 Z e 5 - # e q 7 r q 7 5 r q q 0 @ 7 r e 0 w 7 @ e r e 7 ; 7 r r 5 = # q t r 0 # .                       ",
"                    O 9 Z e 7 - # e q 7 r q 7 5 r q 0 7 @ 7 r e 0 w 7 @ e r e 7 ; 7 r r 5 = # q t r 0 # .                       ",
"                    O 9 Z e 7 - # e 0 5 r 0 7 5 r q 0 7 @ 7 r e 0 w 7 @ e e 0 7 4 7 r r 5 = # w t r 0 # .                       ",
"                    O 9 Z e 7 - @ e 0 5 r 0 7 5 r q 0 7 @ 7 e e 0 w 7 @ e e 0 5 4 7 r r 4 = # w t r 7 # .                       ",
"                    O 9 Z w 5 - @ e 0 5 r 0 7 5 r q 0 5 @ 7 r e 7 w 7 @ e e 0 5 4 7 r r 5 = # q t r 7 # .                       ",
"                    O 9 Z w 5 - @ e 0 5 r 0 7 5 r w 7 4 @ 7 r e 7 w 7 @ e e 0 5 ; 7 r r 5 = # q t r 7 # .                       ",
"                    O 9 Z w 5 - @ e 0 5 r 0 7 5 r q 7 4 @ 5 w e 7 w 7 @ e w 0 5 ; 7 r 0 4 = # q t r 7 # .                       ",
"                    O 9 Z w 5 - @ e 0 5 r 0 7 5 r q 7 4 @ 4 w e 7 w 7 @ e w 0 7 ; 7 r 0 4 = # q t r 7 # .                       ",
"                    O 9 Z q 5 - # e 0 5 r 0 7 5 r q 5 4 # 4 w e 7 w 7 @ e q 0 0 ; 7 e 0 4 = # q t r 7 # .                       ",
"                    O 9 Z q 5 - @ 5 5 5 r 0 5 5 r q 5 4 @ 4 q e 7 w 7 @ e 0 5 0 - 5 e 0 4 & # q t r 7 # .                       ",
"                    O 8 Z q 5 - @ # # # = & & # = & & # @ # & = $ & & @ & $ # $ # # & & # # # q t e 7 @ .                       ",
"                    O 4 a 0 5 - @ & = & = = & & & = = = = = & & = = = & = = & & $ & & & $ # # 0 e q 5 @ .                       ",
"                    O = e 4 4 - @ 4 4 4 4 4 4 5 5 5 5 5 5 5 5 5 5 5 5 4 5 5 4 4 4 4 4 4 4 = # 5 7 5 5 @ .                       ",
"                    O # # @ # @ @ @ @ @ # @ # # # # # # # # # # # # # @ # # # # # # # # # @ @ @ # # @ @ .                       ",
"                    . . . . . . . . . . . . . . . . . . . . . . . . . . . . . . . . . . . . . . . . . .                         ",
"                                                                                                                                ",
"                                                                                                                                ",
"                                                                                                                                "
};
