/* XPM */
static char *result[] = {
/* columns rows colors chars-per-pixel */
"64 64 12 1 ",
"  c black",
". c #010101",
"X c #020202",
"o c gray1",
"O c #040404",
"+ c gray2",
"@ c #060606",
"# c #070707",
"$ c gray3",
"% c #0C0C0C",
"& c gray5",
"* c None",
/* pixels */
"****************************************************************",
"****************************************************************",
"**&XXO@XOOOOOOOOOOOOOOOOOOOOOOOOOOOOOOOOOOOOOOOOOOOOOOOOX@OXX&**",
"**OXX  .                                                .  XXO**",
"**#    +                                                +    #**",
"**$ @#                                                    #@ $**",
"**#    o                                                o    #**",
"** O XX ................................................ XX O **",
"**@ .                                                      . @**",
"**@ .                                                      . @**",
"**@ .                                                      . @**",
"**@ .                                                      . @**",
"**@ .                                                      . @**",
"**@ .                                                      . @**",
"**@ .                                                      . @**",
"**@ .                                                      . @**",
"**@ .                                                      . @**",
"**@ .                                                      . @**",
"**@ .                                                      . @**",
"**@ .                                                      . @**",
"**@ .                                                      . @**",
"**@ .                                                      . @**",
"**@ .                                                      . @**",
"**@ .                                                      . @**",
"**@ .                                                      . @**",
"**@ .                                                      . @**",
"**@ .                                                      . @**",
"**@ .                                                      . @**",
"**@ .                                                      . @**",
"**@ .                                                      . @**",
"**@ .                                                      . @**",
"**@ .                                                      . @**",
"**@ .                                                      . @**",
"**@ .                                                      . @**",
"**@ .                                                      . @**",
"**@ .                                                      . @**",
"**@ .                                                      . @**",
"**@ .                                                      . @**",
"**@ .                                                      . @**",
"**@ .                                                      . @**",
"**@ .                                                      . @**",
"**@ .                                                      . @**",
"**@ .                                                      . @**",
"**@ .                                                      . @**",
"**@ .                                                      . @**",
"**@ .                                                      . @**",
"**@ .                                                      . @**",
"**@ .                                                      . @**",
"**@ .                                                      . @**",
"**@ .                                                      . @**",
"**@ .                                                      . @**",
"**@ .                                                      . @**",
"**@ .                                                      . @**",
"**@ .                                                      . @**",
"**@ .                                                      . @**",
"**@ .                                                      . @**",
"** O XX ................................................ XX O **",
"**#    o                                                o    #**",
"**$ @#                                                    #@ $**",
"**#    +                                                +    #**",
"**OXX  .                                                .  XXO**",
"**%XXO@XOOOOOOOOOOOOOOOOOOOOOOOOOOOOOOOOOOOOOOOOOOOOOOOOX@OXX%**",
"****************************************************************",
"****************************************************************"
};
