/* XPM */
static char *result[] = {
/* columns rows colors chars-per-pixel */
"64 64 67 1 ",
"  c #000000",
". c #090702",
"X c #0B0A05",
"o c #110E05",
"O c #141106",
"+ c #191405",
"@ c #161408",
"# c #181509",
"$ c #1E1A0A",
"% c #211D0A",
"& c #2F2706",
"* c #2B260D",
"= c #2F290D",
"- c #302806",
"; c #322B0E",
": c #3C320C",
"> c #352F11",
", c #373112",
"< c #3B3413",
"1 c #4A3F0F",
"2 c #4E400E",
"3 c #54460F",
"4 c #55480F",
"5 c #534611",
"6 c #564911",
"7 c #5B4E14",
"8 c #6C590F",
"9 c #635111",
"0 c #6B5B13",
"q c #735F11",
"w c #79640E",
"e c #756212",
"r c #786414",
"t c #76641A",
"y c #816C16",
"u c #8C7515",
"i c #937B15",
"p c #977F1A",
"a c #987F1B",
"s c #9C8115",
"d c #97801C",
"f c #9C831A",
"g c #A28615",
"h c #A48915",
"j c #A98E17",
"k c #A18618",
"l c #B49514",
"z c #B99714",
"x c #B79816",
"c c #BC9B13",
"v c #BA9A1A",
"b c #C4A215",
"n c #CEAB17",
"m c #CFAC18",
"M c #D2AD12",
"N c #D6B113",
"B c #DCB412",
"V c #DFB919",
"C c #E5BB0E",
"Z c #EABE0F",
"A c #E0B711",
"S c #E3BA12",
"D c #E9BE10",
"F c #E0BA19",
"G c #EFC20D",
"H c #F0C30E",
"J c #ECC111",
/* pixels */
"                                                              . ",
"                                                              . ",
"                       %eqeeeeeeeqeeeeeewe6                     ",
"                       <JGGGGGGGGGGZGGZGZHh                     ",
"                      .<JGGGHGGGHGGGGGGHHZh   .                 ",
"                  yccccbGGHHHHHHHHHHGGHHGHAccccc#               ",
"                  fGGGGGGJHHHHHHHHHHHHHHHHHHHHGG%               ",
"               X*$jGGHHHGGHHHHHHHHHHHHHHHHHHHHGH,%$             ",
"               6JJJHHHHHHHHHHHHHHHHHHHHHHHHHHHGZJJb             ",
"               3GGGJGHHHHHHHHHHHHHHHHHHHHHHHHHGGJHb             ",
"            .56uGGGHGHHHHHHHHHHHHHHHHHGGHHHHHHGGHHM36*          ",
"            oSGZHGHHHHHHHHHHHHHHHHHHHHHGGGGGGGHHGHGGGw          ",
"            XSGGGGHHHHHHHHHHHHHHHHHHHHGGHHHHHHHGHGHGZw          ",
"          tskJGGHHHHHHHHHHHHHHHHHHHHHHGC94334cHHGHHHGbff$       ",
"          lGGGGHHHHHHHHHHHHHHHHHHHHHHHGA+    aZZHHHGGGGJ>       ",
"       XOOlGHHGHHHHGHHHHHHHHHHHHHHHHHHGA+    gHHGHHHGHHD<OO     ",
"       0MnCHGGHHHHHHHHHHHHHHHHHHHHHHHHZB+    pZHHHHHHGHHNnx     ",
"       eGGGHGHHHHHHHHHHHHHHHHHHHHHHHHHHA+    sGHHHHHHGGGGGM     ",
"       eGGHHHHHHHHHHHHHHHHHHHHHHHHHHHHHC111-1jHZHHHHHHGHGGM     ",
"       rGHHHHHHHHHHHHHHHHHHHHHHHHHHHHHHZZZHHHZGGGHHHHHHHHHM     ",
"       eGHHHHHHHHHHHHHHHHHHHHHHHHHHHHHHHHZHHGHHGHHHHHHHHHHM     ",
"    #yyxGHHHHHHHHHHHHHHHHHHHHHHHHHHHHHHHHHHHHHHHHHHHHHHHHHM     ",
"    -CHHGHHHHHHHHHHHHHHHHHHHHHHHHHHHHHHHHHHHHHHHHHHGGGGGGGM     ",
"    -CGHGHHHHHHHHHHHHHHHHHHHHHHHHHHHHHHHHHHHHHHHHHHHHGGZJGM     ",
"    &CHGHHHHHHHHHHHHHHHHHHHHHHHHHHHHHHHHHHHHGHHGGGGGGi>>>>=     ",
"    &CGHHHHHHHHHHHHHHHHHHHHHHHHHHHHHHHHHHHHHGGGGGGGGZw          ",
"    &CGHHHHHHHHHHHHHHHHHHHHHHHHHHHHHHHHHHHHHGANBNNNNN0          ",
"    &CGHHHHHHHHHHHHHHHHHHHHHHHHHHHHHHHHHHGHHZ7XXXXXXX.          ",
"    &CGHHHHHHHHHHHHHHHHHHGHHHHHHHHHHHHHHGGGGG4                  ",
"    &CGHHHHHHHHHHHHHHHHHHHHHHHHHHHHHHHHHGGMii;                  ",
"    &CGHHHHHHHHHHHHHHHHHHHHHHHHHHHHHHHHHGGg.                    ",
"    &CGGHHHHHHHHHHHHHHHHHHHHHHHHHHHHHHHHGGg                     ",
"    -CHHHHHHHHHHHHHHHHHHHHHHHHHHHHHHHHHHGGMss:                  ",
"    &CHHHHHHHHHHHHHHHHHHHHHHHHHHHHHHHHHHHGGGG4                  ",
"    &CZHHHHHHHHHHHHHHHHHHHHGHHHHHHHHHHHHHHHGG6..X....           ",
"    &CHHHHHHHHHHHHHHHHHHHHHHHHHHHHHHHHHHHHHHGSVVVVVVVe          ",
"    &CGHHHHHHHHHHHHHHHHHHHHHHHHHHHHHHHHHHHHHGGGHDJGGGe          ",
"    &CGHHHHHHHHHHHHHHHHHHHHHHHHHHHHHHHHHHHHHGHGHJJGGGu;;=>*     ",
"    &CGHHHHHHHHHHHHHHHHHHHHHHHHHHHHHHHHHHHHHHHHHHHHHGGJJJJm     ",
"    &CGGGHHHHHHHHHHHHHHHHHHHHHHHHHHHHHHHHHHHHHHHHHHGGGGGGGM     ",
"    +0elGHHHHHHHHHHHHHHHHHHHHHHHHHHHHHHHHHHHHHHHHHHHHHGGGGM     ",
"       eHHHHHHHHHHHHHHHHHHHHHHHHHHHHHHHHHHHHHHHHHHHHHHHHHGM     ",
"       rGHHGHHHHHHHHHHHHHHHHHHHHHHHHHHHHHHHHHHHHHHHHHHHHHGM     ",
"       eGHGGGHHHHHHHHHHHHHHHHHHHHHHHHHHHHHHHHHHHHHHHHHGHGHM     ",
"       rGGGGGHHHHHHHHHHHHHHHHHHHHHHHHHHHHHHHHHHHHHHHHGGHGGM     ",
"       0nnZGGHGHHHHHHHHHHHHHHHHHHHHHHHHHHHHHHHHHHHHHGGGGNmv     ",
"        ..lGHGHHHHHHHHHHHHHHHHHHHHHHHHHHHHHHHHHHHHHHGGGJ;X.     ",
"          lGGGJHHHHHHHHHHHHHHHHHHHHHHHHHHHHHHHHHHHHHGGGG;       ",
"          tpfDHHHHHHHHHHHHHHHHHHHHHHHHHHHHHHHHHHHHHGGbpa$       ",
"            oSGHHHHHHHHHHHHHHHHHHHHHHHHHHHHHHHHHGGGHGw          ",
"            OSGGGGHHHHHHHHHHHHHHHHHHHHHHHHHHHHHHGGGGGw          ",
"            .67uGGHGGHHHHHHHHHHHHHHHHHHHHHHHHHHGGGN77=          ",
"               6GGGGJHHHHHHHHHHHHHHHHHHHHHHHHHHGGGb             ",
"               3AAZGHHHHHHHHHHHHHHHHHHHHHHHHHHGGSBv             ",
"               X%%jGHHHHHHHHHHHHHHHHHHHHHHHHHHGJ<%$             ",
"                  fGGHGJGHHHHHHHHHHHHHHHGGHGGGGJ$               ",
"                  rllllbGGGGHHHHHHHHHHHHGGBllllx#               ",
"                   . ..<GHGGHGGHGGGGGHGGGGg... .                ",
"                       <GGGGGGGGGGGGGGGGGGj                     ",
"                       $8888888008888888801                     ",
"                                                                ",
"                                                                ",
"                                                                ",
"                                                              .."
};
