/* XPM */
static char *result[] = {
/* columns rows colors chars-per-pixel */
"64 64 77 1 ",
"  c #000000",
". c #080703",
"X c #0D0C05",
"o c #110E06",
"O c #100E08",
"+ c #141105",
"@ c #1A1707",
"# c #1D1904",
"$ c #131209",
"% c #191508",
"& c #1E1A0B",
"* c #211D0A",
"= c #25210C",
"- c #29230A",
"; c #362E0D",
": c #37300E",
"> c #38300D",
", c #342E11",
"< c #373012",
"1 c #3C3512",
"2 c #453A0E",
"3 c #403714",
"4 c #433910",
"5 c #5E4E0F",
"6 c #524611",
"7 c #554813",
"8 c #5F4E10",
"9 c #594C18",
"0 c #5C5017",
"q c #745F0F",
"w c #645412",
"e c #675815",
"r c #6A5A16",
"t c #715E11",
"y c #736012",
"u c #7A6511",
"i c #866F13",
"p c #886F12",
"a c #867117",
"s c #8C7411",
"d c #8D7817",
"f c #877218",
"g c #897318",
"h c #957C16",
"j c #967E19",
"k c #987F18",
"l c #9F8516",
"z c #9B821A",
"x c #A38713",
"c c #A58814",
"v c #AA8D16",
"b c #A18719",
"n c #A98D19",
"m c #AF9116",
"M c #B59616",
"N c #BB9B14",
"B c #B59618",
"V c #B99A1A",
"C c #C39F11",
"Z c #DEB60F",
"A c #C4A214",
"S c #CAA513",
"D c #CEAA14",
"F c #C5A31A",
"G c #C8A61B",
"H c #CAA81A",
"J c #D5AE14",
"K c #D7B013",
"L c #DDB511",
"P c #E9BE0F",
"I c #E0B711",
"U c #E3BA14",
"Y c #E9BE13",
"T c #EEC20D",
"R c #F0C30E",
"E c #ECC113",
"W c #E8C119",
/* pixels */
"                                                                ",
"                                                                ",
"                     ;sssssssssssssssssss=                      ",
"                     6TTTTTTTTTTTTTTTTTTE1                      ",
"                .....7TTTTTTRTTRRTTRTTTTE1X....                 ",
"               XlNNNNDTTRRRRRRRRRRRRRRTRTSNNNNz                 ",
"               XDTTTTTTTRRRRRRRRRRRRRRRTTTTTTTF                 ",
"             +@=DTRRRRRRRRRRRRRRRRRRRRRRTTETTTS@@o              ",
"             zJKTTRRRRRRRRRRRRRRRRRRRRRRRRRRTTTKJg              ",
"             cTTTTTRRRRRRRRRRRRRRRRRRRRRRRRRTTTTTh              ",
"          @>:MTTRRRRRRRRRRRRRRRRRRRRRRRRRRRRTRRTTv;;%           ",
"          yPYTTTRRRRRRRRRRRRRRRRRRRRRRRRRRRRRRRTRPYPr           ",
"          qTTTTRRRRRRRRRRRRRRRRRRRRRRRRRRRRRRRRRRRRPr           ",
"       &rwvTRRRRRRRRRRRRRRRRRRRRRRRRRRRRRRRRRRRRRRRTbwr@        ",
"       2TTTTTRRRRRRRRRRRRRRRRRRRRRRRRRRRRRRRRRRRRRTTTPT>        ",
"       2ETTRTRRRRRRRRRRRRRRRRRRRRRRRRRRRRRRRRRRRRRTRTTT>        ",
"    +dhMTTRTRRRRRRRRRRRRRRRRRRRRRRRRRRRRRRRRRRRRRRTRTRTvhhX     ",
"    #ZPPTTTRRRRRRRRRRRRRRRRRRRRRRRRRRRRRRRRRRRRRRRRRRTTTTPo     ",
"    #IRRTRRRRRRRRRRRRRRRRRRRRRRRRRRRRRRRRRRRRRRRRRRRTRTRREo     ",
"    #IPRRRRRRRRRRRRRRRRRRRRRRRRRRRRRRRRRRRRRRRRRRRRRRRRRTEo     ",
"    #ZRRRRRRRRRRRRRRRRRRRRRRRRRRRRRRRRRRRRRRRRRRRRRRRRRRTEo     ",
"    #IRPRRRRRRRRRRRRRRRRRRRRRRRRRRRRRRRRRRRRRRRRRRRRRRRRTE&+X   ",
"    #IRRTTTTTRRRRRRRRRRRRRRRRRRRRRRRRRRRRRRRRRRRRRRRRRRRRTKKM   ",
"    #IRPTTRRTRRRRRRRRRRRRRRRRRRRRRRRRRRRRRRRRRRRRRRRRRRRRTTTC   ",
"    +nMMBMDPTTRRRRTTTRRRRRRRRRRRRRRRRRRRRRRRRRRRRRRRRRRRRTTTC   ",
"     .....qTRTTTTTTRTRRRRRRRRRRRRRRRRRRRRRRRRRRRRRRRRRRRRRRTC   ",
"          yTTTTTTTTTRRRRRRRRRRRRRRRRRRRRRRRRRRRRRRRRRRRRRRRTC   ",
"          4aafffaahTTRRTRRRRRRRRRRRRRRRRRRRRRRRRRRRRRRRRRRRTC   ",
"                  -UTTTTRRRRRRRRRRRRRRRRRRRRRRRRRRRRRRRRRRTTC   ",
"                  -LTTTTRRRRRRRRRRRRRRRRRRRRRRRRRRRRRRRRRRRTC   ",
"                  o66aTTRRRRRRRRRRRRRRRRRRRRRRRRRRRRRRRRRRRTC   ",
"                     6TTRRRRRRRRRRRRRRRRRRRRRRTRRRRRRRRRRRRTC   ",
"                    .6PTRRRRRRRRRRRRRRRRRRRRRRRRRRRRRRRRRRREA   ",
"                  *NCKRTRRRRRRRRRRRRRRRRRRRRRRRRRRRRRRRRRRRRA   ",
"              .   -IPPTRRRRRRRRRRRRRRRRRRRRRRRRRRRRRRRRRRRRRA   ",
"          .oOOooOO>IRRRRRRRRRRRRRRRRRRRRRRRRRRRRRRRRRRRRRRREA   ",
"          tYPPPYYYYTRRRRRRRRRRRRRRRRRRRRRRRRRRRRRRRRRRRRRRTTC   ",
"          tTTTRRRRTTTRRRRRRRRRRRRRRRRRRRRRRRRRRRRRRRRRRRRRRTC   ",
"    .,;,,,gTTRTRTRRTTRRRRRRRRRRRRRRRRRRRRRRRRRRRRRRRRRRRTTTTA   ",
"    #LETYTTTRRRRRRRRRRRRRRRRRRRRRRRRRRRRRRRRRRRRRRRRRRRRTTTTC   ",
"    #ZTTPRRRRRRRRRRRRRRRRRRRRRRRRRRRRRRRRRRRRRRRRRRRRRRRRTRTC   ",
"    #ZRRRRRRRRRRRRRRRRRRRRRRRRRRRRRRRRRRRRRRRRRRRRRRRRRRTTdgy   ",
"    #ZTRRRRRRRRRRRRRRRRRRRRRRRRRRRRRRRRRRRRRRRRRRRRRRRRRTEX     ",
"    #ZTRRRRRRRRRTRRRRRRRRTRRRRRRRRRRRRRRRRRRRRRRRRRRRRRRTEo     ",
"    #ZTTRRRRRRRRRPKw8555mTTRRRRRRRRRRRRRRRRRRERRRRRRRRRTEEX     ",
"    #ZTRRRRRRRRRRRCX.   pPTRRRRRRRRRRRRRRRRRRRRRRRRRRTTTTEo     ",
"    #LPTRRRRRRRRRRSX    pRRRRRRRRRRRRRRRRRRRRRRRRRRTRTTETE$     ",
"    .,,rPRPRRRRRRPSX    pPRRRRRRRRRRRRRRRRRRRRRRRRTRTTT0<<      ",
"       2TTTRRRRRTTSX    iPRRRRRRRRRRRRRRRRRRRRRRRRTTRTT>        ",
"       4WWERRRRRTTSo ...iRRRRRRRRRRRRRRRRRRRRRRRRRTTEWW<        ",
"       .$$uPRRRRTTTYUUUUYRRRRRRRRRRRRRRRRRRRRRRRRTRTr$$         ",
"          tTTTTRTTTTRRRERRRRRRRRRRRRRRRRRRRRRRRRTTTTr           ",
"          wFAUTTRRRTRRRRPRRRRRRRRRRRRRRRRRRRRRRRTZFS9           ",
"             xTTTRRRRRRRRRRRRRRRRRRRRRRRRRRRTTRTTh              ",
"             cPRRTRRRRRRRRRRRRRRRRRRRRRRRRRRTRTTTh              ",
"             rklITTRRRRTRRRRRRRRRRRRRRRRRRRRTTIkzw              ",
"               XSTRRTRTTRRRRRRRRRRRRRRRERTTRTTF                 ",
"               oSTTTTTTTRRRRRRRRRRRRRRRRTTRTTTG                 ",
"               .7wwwwhTTTRRRRRTERRRRRRRRTaww8w7                 ",
"                     6TTTRTRTRTTTTRTTTTTE1                      ",
"                     6TTTTTTETTTTTTTTTTTE1                      ",
"                     o;;;;;;;;;;;;;;;;;;;X                      ",
"                                                                ",
"                                                                "
};
